<svg width="605" height="97" viewBox="0 0 605 97" fill="none" xmlns="http://www.w3.org/2000/svg">
<path d="M12.36 95.152C8.52 95.152 5.78933 94.5973 4.168 93.488C2.54667 92.2933 1.56533 90.8 1.224 89.008C0.968 87.1307 0.84 85.2533 0.84 83.376V41.648C0.84 39.6853 1.01067 37.8507 1.352 36.144C1.69333 34.352 2.67467 32.9013 4.296 31.792C5.91733 30.6827 8.648 30.128 12.488 30.128C16.2427 30.128 18.888 30.64 20.424 31.664C22.0453 32.688 23.0267 33.84 23.368 35.12C23.7093 36.3147 23.88 37.2533 23.88 37.936L21.832 37.168C21.832 37.168 22.1733 36.784 22.856 36.016C23.5387 35.248 24.52 34.352 25.8 33.328C27.1653 32.304 28.744 31.408 30.536 30.64C32.4133 29.872 34.504 29.488 36.808 29.488C37.576 29.488 38.5147 29.5733 39.624 29.744C40.8187 29.8293 42.056 30.0427 43.336 30.384C44.7013 30.7253 45.9387 31.2373 47.048 31.92C48.2427 32.6027 49.1813 33.4987 49.864 34.608C50.632 35.7173 51.016 37.0827 51.016 38.704C51.016 42.9707 50.0773 46.5973 48.2 49.584C46.408 52.5707 44.0187 54.064 41.032 54.064C39.4107 54.064 38.2587 53.9787 37.576 53.808C36.8933 53.552 36.3813 53.3387 36.04 53.168C35.784 52.912 35.4427 52.6987 35.016 52.528C34.6747 52.272 33.992 52.144 32.968 52.144C31.688 52.144 30.4933 52.3147 29.384 52.656C28.36 52.912 27.4213 53.3387 26.568 53.936C25.8 54.5333 25.2027 55.2587 24.776 56.112C24.3493 56.88 24.136 57.7333 24.136 58.672V83.632C24.136 85.5093 23.9653 87.344 23.624 89.136C23.2827 90.928 22.3013 92.3787 20.68 93.488C19.0587 94.5973 16.2853 95.152 12.36 95.152ZM84.215 96.304C80.2897 96.304 76.3217 95.536 72.311 94C68.3003 92.3787 64.5883 90.1173 61.175 87.216C57.847 84.2293 55.159 80.688 53.111 76.592C51.1483 72.4107 50.167 67.76 50.167 62.64C50.167 57.9467 51.063 53.552 52.855 49.456C54.647 45.36 57.079 41.776 60.151 38.704C63.3083 35.5467 66.8923 33.072 70.903 31.28C74.999 29.488 79.351 28.592 83.959 28.592C90.2737 28.592 95.991 30.128 101.111 33.2C106.231 36.1867 110.327 40.24 113.399 45.36C116.471 50.48 118.007 56.1973 118.007 62.512C118.007 67.888 116.983 72.6667 114.935 76.848C112.887 81.0293 110.199 84.5707 106.871 87.472C103.543 90.3733 99.8737 92.5493 95.863 94C91.9377 95.536 88.055 96.304 84.215 96.304ZM83.959 72.88C85.239 72.88 86.6897 72.5813 88.311 71.984C90.0177 71.3013 91.4683 70.192 92.663 68.656C93.943 67.12 94.583 65.0293 94.583 62.384C94.583 60.2507 94.1137 58.416 93.175 56.88C92.3217 55.344 91.0843 54.1493 89.463 53.296C87.8417 52.4427 85.9643 52.016 83.831 52.016C81.9537 52.016 80.247 52.4853 78.711 53.424C77.175 54.2773 75.9377 55.5147 74.999 57.136C74.0603 58.672 73.591 60.464 73.591 62.512C73.591 65.072 74.1883 67.12 75.383 68.656C76.5777 70.192 77.9857 71.3013 79.607 71.984C81.2283 72.5813 82.679 72.88 83.959 72.88ZM151.238 94.896C147.398 94.896 143.686 94.0427 140.102 92.336C136.603 90.544 133.446 88.1547 130.63 85.168C127.899 82.096 125.723 78.5973 124.102 74.672C122.481 70.7467 121.67 66.6507 121.67 62.384C121.67 58.288 122.481 54.32 124.102 50.48C125.723 46.64 127.942 43.2267 130.758 40.24C133.574 37.168 136.731 34.736 140.23 32.944C143.814 31.152 147.483 30.256 151.238 30.256C155.334 30.256 158.875 31.152 161.862 32.944C164.849 34.6507 167.323 36.9973 169.286 39.984C171.249 42.9707 172.699 46.384 173.638 50.224C174.662 54.064 175.217 58.032 175.302 62.128C175.387 66.3093 174.961 70.3627 174.022 74.288C173.083 78.128 171.633 81.6267 169.67 84.784C167.707 87.856 165.19 90.3307 162.118 92.208C159.131 94 155.505 94.896 151.238 94.896ZM154.31 71.856C155.931 71.856 157.425 71.4293 158.79 70.576C160.155 69.7227 161.265 68.6133 162.118 67.248C162.971 65.7973 163.398 64.2613 163.398 62.64C163.398 60.9333 162.971 59.3973 162.118 58.032C161.35 56.6667 160.283 55.5573 158.918 54.704C157.553 53.8507 155.974 53.424 154.182 53.424C152.475 53.424 150.897 53.8507 149.446 54.704C148.081 55.472 146.971 56.5813 146.118 58.032C145.35 59.3973 144.966 60.9333 144.966 62.64C144.966 64.2613 145.393 65.7973 146.246 67.248C147.099 68.6133 148.251 69.7227 149.702 70.576C151.153 71.4293 152.689 71.856 154.31 71.856ZM175.302 95.024C171.889 95.024 169.329 94.512 167.622 93.488C165.915 92.464 164.763 90.8427 164.166 88.624V12.464C164.166 10.5867 164.251 8.752 164.422 6.96C164.678 5.168 165.574 3.71733 167.11 2.60799C168.646 1.41333 171.334 0.815994 175.174 0.815994C179.099 0.815994 181.83 1.37066 183.366 2.48C184.987 3.58933 185.969 5.04 186.31 6.83199C186.651 8.53866 186.822 10.3733 186.822 12.336V83.376C186.822 85.2533 186.651 87.088 186.31 88.88C185.969 90.672 184.987 92.1653 183.366 93.36C181.83 94.4693 179.142 95.024 175.302 95.024ZM203.937 95.152C200.78 95.152 198.049 94 195.745 91.696C193.526 89.392 192.417 86.6613 192.417 83.504C192.417 81.968 192.673 80.5173 193.185 79.152C193.782 77.7013 194.678 76.4213 195.873 75.312L220.449 53.296H206.753C204.876 53.296 203.041 53.1253 201.249 52.784C199.457 52.4427 197.964 51.4613 196.769 49.84C195.574 48.2187 194.977 45.488 194.977 41.648C194.977 37.808 195.574 35.12 196.769 33.584C197.964 31.9627 199.457 30.9813 201.249 30.64C203.041 30.2987 204.876 30.128 206.753 30.128H245.537C248.694 30.128 251.382 31.2373 253.601 33.456C255.905 35.6747 257.057 38.3627 257.057 41.52C257.057 43.1413 256.758 44.72 256.161 46.256C255.564 47.7067 254.753 48.9013 253.729 49.84L229.793 71.856H247.073C249.036 71.856 250.87 72.0267 252.577 72.368C254.369 72.7093 255.82 73.7333 256.929 75.44C258.038 77.0613 258.593 79.792 258.593 83.632C258.593 87.472 257.996 90.2027 256.801 91.824C255.692 93.4453 254.241 94.384 252.449 94.64C250.742 94.9813 248.908 95.152 246.945 95.152H203.937ZM297.239 96.56C290.839 96.56 285.42 95.536 280.983 93.488C276.546 91.3547 272.962 88.624 270.231 85.296C267.5 81.8827 265.495 78.2133 264.215 74.288C262.935 70.3627 262.295 66.5653 262.295 62.896C262.295 56.1547 263.788 50.224 266.775 45.104C269.762 39.984 273.9 35.9733 279.191 33.072C284.482 30.1707 290.54 28.72 297.367 28.72C302.658 28.72 307.18 29.5733 310.935 31.28C314.69 32.9867 317.719 35.1627 320.023 37.808C322.412 40.4533 324.162 43.2693 325.271 46.256C326.38 49.2427 326.935 52.016 326.935 54.576C326.935 59.44 325.74 63.152 323.351 65.712C320.962 68.272 317.89 69.552 314.135 69.552H286.871C287.212 70.9173 287.895 72.112 288.919 73.136C290.028 74.0747 291.394 74.8427 293.015 75.44C294.636 75.952 296.386 76.208 298.263 76.208C300.14 76.208 301.804 76.1227 303.255 75.952C304.706 75.696 305.943 75.3973 306.967 75.056C308.076 74.7147 309.058 74.3733 309.911 74.032C310.85 73.6907 311.66 73.4347 312.343 73.264C313.111 73.008 313.836 72.88 314.519 72.88C316.055 72.88 317.463 73.392 318.743 74.416C320.023 75.44 321.175 76.976 322.199 79.024C322.796 80.1333 323.223 81.2 323.479 82.224C323.735 83.1627 323.863 84.0587 323.863 84.912C323.863 87.472 322.796 89.6053 320.663 91.312C318.615 93.0187 315.628 94.2987 311.703 95.152C307.778 96.0907 302.956 96.56 297.239 96.56ZM286.871 57.52H301.207C302.402 57.52 303.255 57.264 303.767 56.752C304.364 56.24 304.663 55.472 304.663 54.448C304.663 53.3387 304.322 52.4 303.639 51.632C303.042 50.864 302.188 50.3093 301.079 49.968C299.97 49.5413 298.647 49.328 297.111 49.328C295.063 49.328 293.271 49.7547 291.735 50.608C290.199 51.376 289.004 52.4 288.151 53.68C287.383 54.8747 286.956 56.1547 286.871 57.52ZM359.851 95.152C355.926 95.152 352.47 94.9813 349.483 94.64C346.582 94.2987 344.107 93.616 342.059 92.592C340.011 91.568 338.347 90.1173 337.067 88.24C335.787 86.2773 334.848 83.76 334.251 80.688C333.654 77.5307 333.355 73.6053 333.355 68.912V12.208C333.355 10.2453 333.526 8.41066 333.867 6.70399C334.208 4.912 335.19 3.46133 336.811 2.352C338.432 1.15733 341.163 0.559998 345.003 0.559998C348.843 0.559998 351.531 1.15733 353.067 2.352C354.688 3.46133 355.67 4.912 356.011 6.70399C356.352 8.496 356.523 10.3733 356.523 12.336V67.504C356.523 68.784 356.523 69.808 356.523 70.576C356.608 71.2587 356.736 71.7707 356.907 72.112C357.163 72.4533 357.504 72.6667 357.931 72.752C358.443 72.752 359.126 72.752 359.979 72.752C361.088 72.752 362.24 72.9227 363.435 73.264C364.715 73.52 365.782 74.416 366.635 75.952C367.574 77.4027 368.043 79.9627 368.043 83.632C368.043 87.472 367.574 90.2027 366.635 91.824C365.782 93.4453 364.715 94.384 363.435 94.64C362.155 94.9813 360.96 95.152 359.851 95.152ZM382.705 95.28C378.182 95.28 374.982 94.384 373.105 92.592C371.313 90.8 370.417 87.6853 370.417 83.248C370.417 80.0907 370.801 77.616 371.569 75.824C372.422 74.032 373.745 72.752 375.537 71.984C377.329 71.1307 379.761 70.704 382.833 70.704C387.356 70.704 390.513 71.6427 392.305 73.52C394.097 75.312 394.993 78.512 394.993 83.12C394.993 86.1067 394.609 88.496 393.841 90.288C393.073 92.08 391.793 93.36 390.001 94.128C388.209 94.896 385.777 95.28 382.705 95.28ZM428.238 94.896C424.398 94.896 420.686 94.0427 417.102 92.336C413.603 90.544 410.446 88.1547 407.63 85.168C404.899 82.096 402.723 78.5973 401.102 74.672C399.481 70.7467 398.67 66.6507 398.67 62.384C398.67 58.288 399.481 54.32 401.102 50.48C402.723 46.64 404.942 43.2267 407.758 40.24C410.574 37.168 413.731 34.736 417.23 32.944C420.814 31.152 424.483 30.256 428.238 30.256C432.334 30.256 435.875 31.152 438.862 32.944C441.849 34.6507 444.323 36.9973 446.286 39.984C448.249 42.9707 449.699 46.384 450.638 50.224C451.662 54.064 452.217 58.032 452.302 62.128C452.387 66.3093 451.961 70.3627 451.022 74.288C450.083 78.128 448.633 81.6267 446.67 84.784C444.707 87.856 442.19 90.3307 439.118 92.208C436.131 94 432.505 94.896 428.238 94.896ZM431.31 71.856C432.931 71.856 434.425 71.4293 435.79 70.576C437.155 69.7227 438.265 68.6133 439.118 67.248C439.971 65.7973 440.398 64.2613 440.398 62.64C440.398 60.9333 439.971 59.3973 439.118 58.032C438.35 56.6667 437.283 55.5573 435.918 54.704C434.553 53.8507 432.974 53.424 431.182 53.424C429.475 53.424 427.897 53.8507 426.446 54.704C425.081 55.472 423.971 56.5813 423.118 58.032C422.35 59.3973 421.966 60.9333 421.966 62.64C421.966 64.2613 422.393 65.7973 423.246 67.248C424.099 68.6133 425.251 69.7227 426.702 70.576C428.153 71.4293 429.689 71.856 431.31 71.856ZM452.302 95.024C448.889 95.024 446.329 94.512 444.622 93.488C442.915 92.464 441.763 90.8427 441.166 88.624V12.464C441.166 10.5867 441.251 8.752 441.422 6.96C441.678 5.168 442.574 3.71733 444.11 2.60799C445.646 1.41333 448.334 0.815994 452.174 0.815994C456.099 0.815994 458.83 1.37066 460.366 2.48C461.987 3.58933 462.969 5.04 463.31 6.83199C463.651 8.53866 463.822 10.3733 463.822 12.336V83.376C463.822 85.2533 463.651 87.088 463.31 88.88C462.969 90.672 461.987 92.1653 460.366 93.36C458.83 94.4693 456.142 95.024 452.302 95.024ZM504.489 96.56C498.089 96.56 492.67 95.536 488.233 93.488C483.796 91.3547 480.212 88.624 477.481 85.296C474.75 81.8827 472.745 78.2133 471.465 74.288C470.185 70.3627 469.545 66.5653 469.545 62.896C469.545 56.1547 471.038 50.224 474.025 45.104C477.012 39.984 481.15 35.9733 486.441 33.072C491.732 30.1707 497.79 28.72 504.617 28.72C509.908 28.72 514.43 29.5733 518.185 31.28C521.94 32.9867 524.969 35.1627 527.273 37.808C529.662 40.4533 531.412 43.2693 532.521 46.256C533.63 49.2427 534.185 52.016 534.185 54.576C534.185 59.44 532.99 63.152 530.601 65.712C528.212 68.272 525.14 69.552 521.385 69.552H494.121C494.462 70.9173 495.145 72.112 496.169 73.136C497.278 74.0747 498.644 74.8427 500.265 75.44C501.886 75.952 503.636 76.208 505.513 76.208C507.39 76.208 509.054 76.1227 510.505 75.952C511.956 75.696 513.193 75.3973 514.217 75.056C515.326 74.7147 516.308 74.3733 517.161 74.032C518.1 73.6907 518.91 73.4347 519.593 73.264C520.361 73.008 521.086 72.88 521.769 72.88C523.305 72.88 524.713 73.392 525.993 74.416C527.273 75.44 528.425 76.976 529.449 79.024C530.046 80.1333 530.473 81.2 530.729 82.224C530.985 83.1627 531.113 84.0587 531.113 84.912C531.113 87.472 530.046 89.6053 527.913 91.312C525.865 93.0187 522.878 94.2987 518.953 95.152C515.028 96.0907 510.206 96.56 504.489 96.56ZM494.121 57.52H508.457C509.652 57.52 510.505 57.264 511.017 56.752C511.614 56.24 511.913 55.472 511.913 54.448C511.913 53.3387 511.572 52.4 510.889 51.632C510.292 50.864 509.438 50.3093 508.329 49.968C507.22 49.5413 505.897 49.328 504.361 49.328C502.313 49.328 500.521 49.7547 498.985 50.608C497.449 51.376 496.254 52.4 495.401 53.68C494.633 54.8747 494.206 56.1547 494.121 57.52ZM569.114 95.792C566.725 95.792 564.634 95.3227 562.842 94.384C561.135 93.4453 559.813 92.0373 558.874 90.16L536.218 47.024C534.341 43.3547 533.743 40.2827 534.426 37.808C535.109 35.3333 537.413 33.1573 541.338 31.28C545.349 29.3173 548.506 28.6347 550.81 29.232C553.114 29.8293 555.205 32.2613 557.082 36.528L569.114 63.92L581.146 36.528C583.109 32.0907 585.242 29.616 587.546 29.104C589.85 28.592 592.965 29.3173 596.89 31.28C600.901 33.2427 603.205 35.504 603.802 38.064C604.399 40.5387 603.802 43.5253 602.01 47.024L579.354 90.16C578.415 92.0373 577.093 93.4453 575.386 94.384C573.679 95.3227 571.589 95.792 569.114 95.792Z" fill="black"/>
</svg>
